# xmcd
#
# Track frame offsets: 
#        150
#        17063
#        34860
#        51759
#        66975
#
# Disc length: 1174 seconds
#
# Revision: 4
# Processed by: cddbd v1.5.2PL0 Copyright (c) Steve Scherf et al.
# Submitted via: ExactAudioCopyFreeDBPlugin 1.0
#
DISCID=3e049405
DTITLE=Różni wykonawcy - Największe przeboje słonecznej Italii
DYEAR=2002
DGENRE=Italo-Disco
TTITLE0=Ricchi E Poveri - Acapulco
TTITLE1=Drupi - Sereno E
TTITLE2=Valeria Rossi - Tre Parole
TTITLE3=Ricchi E Poveri - Made in Italy
TTITLE4=Al Bano and Romina Power - Sharazan
EXTD=
EXTT0=
EXTT1=
EXTT2=
EXTT3=
EXTT4=
PLAYORDER=
